<?xml version="1.0" standalone="no"?>
<!DOCTYPE svg PUBLIC "-//W3C//DTD SVG 20010904//EN"
 "http://www.w3.org/TR/2001/REC-SVG-20010904/DTD/svg10.dtd">
<svg version="1.0" xmlns="http://www.w3.org/2000/svg"
 width="128.000000pt" height="128.000000pt" viewBox="0 0 128.000000 128.000000"
 preserveAspectRatio="xMidYMid meet">

<g transform="translate(0.000000,128.000000) scale(0.100000,-0.100000)"
fill="#000000" stroke="none">
<path d="M501 1265 c-284 -62 -501 -332 -501 -625 0 -349 291 -640 640 -640
349 0 640 291 640 640 0 405 -382 711 -779 625z m264 -40 c114 -24 209 -77
295 -164 87 -87 131 -164 160 -277 35 -137 20 -275 -45 -413 -44 -92 -159
-210 -252 -259 -173 -91 -370 -93 -552 -7 -92 44 -210 159 -259 252 -125 238
-82 515 107 703 152 151 341 208 546 165z"/>
<path d="M394 868 c-124 -111 -228 -208 -231 -215 -3 -8 -1 -25 5 -39 11 -22
17 -24 82 -24 l70 0 0 -153 c0 -122 3 -157 16 -175 15 -22 17 -22 308 -22 214
0 295 3 304 12 8 8 12 62 12 175 l0 163 64 0 c92 0 120 32 74 84 -57 63 -443
396 -460 396 -10 0 -120 -91 -244 -202z m469 -35 l221 -198 -82 -3 -82 -3 0
-174 0 -175 -80 0 -80 0 0 150 0 151 -112 -3 -113 -3 -3 -148 -3 -148 -82 3
-82 3 -3 173 -2 172 -81 0 c-44 0 -79 4 -77 8 3 9 430 392 436 392 2 0 103
-89 225 -197z m-143 -423 l0 -130 -75 0 -75 0 0 130 0 130 75 0 75 0 0 -130z"/>
</g>
</svg>
