<?xml version="1.0" standalone="no"?>
<!DOCTYPE svg PUBLIC "-//W3C//DTD SVG 20010904//EN"
 "http://www.w3.org/TR/2001/REC-SVG-20010904/DTD/svg10.dtd">
<svg version="1.0" xmlns="http://www.w3.org/2000/svg"
 width="128.000000pt" height="128.000000pt" viewBox="0 0 128.000000 128.000000"
 preserveAspectRatio="xMidYMid meet">

<g transform="translate(0.000000,128.000000) scale(0.100000,-0.100000)"
fill="#000000" stroke="none">
<path d="M543 1273 c-24 -5 -30 -18 -13 -28 18 -11 211 -8 222 3 7 7 8 15 4
19 -8 8 -180 14 -213 6z"/>
<path d="M344 1204 c-38 -19 -82 -46 -99 -59 -27 -22 -27 -25 -10 -31 12 -5
31 0 54 14 20 13 59 34 88 49 28 15 54 35 56 45 7 26 -12 23 -89 -18z"/>
<path d="M847 1222 c2 -10 28 -30 56 -45 29 -15 68 -36 88 -49 21 -13 42 -19
53 -15 15 6 14 10 -11 31 -37 31 -155 96 -175 96 -11 0 -14 -6 -11 -18z"/>
<path d="M394 868 c-124 -111 -228 -208 -231 -215 -3 -8 -1 -25 5 -39 11 -22
17 -24 82 -24 l70 0 0 -153 c0 -122 3 -157 16 -175 15 -22 17 -22 308 -22 214
0 295 3 304 12 8 8 12 62 12 175 l0 163 64 0 c92 0 120 32 74 84 -57 63 -443
396 -460 396 -10 0 -120 -91 -244 -202z m469 -35 l221 -198 -82 -3 -82 -3 0
-174 0 -175 -80 0 -80 0 0 150 0 151 -112 -3 -113 -3 -3 -148 -3 -148 -82 3
-82 3 -3 173 -2 172 -81 0 c-44 0 -79 4 -77 8 3 9 430 392 436 392 2 0 103
-89 225 -197z m-143 -423 l0 -130 -75 0 -75 0 0 130 0 130 75 0 75 0 0 -130z"/>
<path d="M133 1031 c-30 -38 -93 -155 -93 -173 0 -29 37 -8 55 32 9 21 30 57
46 81 43 65 36 114 -8 60z"/>
<path d="M1114 1045 c-5 -12 0 -31 14 -54 13 -20 34 -59 49 -88 26 -50 63 -78
63 -46 0 20 -64 140 -95 178 -22 27 -25 28 -31 10z"/>
<path d="M4 714 c-7 -50 -1 -181 10 -191 3 -4 11 -2 17 4 11 11 16 204 5 222
-14 22 -25 10 -32 -35z"/>
<path d="M1245 750 c-11 -18 -8 -211 3 -222 18 -18 24 -4 30 71 7 109 -10 188
-33 151z"/>
<path d="M40 424 c0 -21 63 -140 95 -179 22 -26 25 -27 31 -10 5 11 0 30 -11
49 -10 17 -31 55 -47 84 -31 56 -68 86 -68 56z"/>
<path d="M1217 429 c-9 -6 -31 -36 -48 -67 -16 -31 -37 -69 -46 -83 -10 -15
-13 -33 -9 -44 6 -17 9 -16 31 10 13 17 40 60 60 98 39 72 43 103 12 86z"/>
<path d="M226 161 c-11 -16 161 -121 199 -121 30 0 -4 39 -58 66 -29 15 -63
35 -76 45 -25 20 -56 25 -65 10z"/>
<path d="M950 131 c-84 -50 -122 -84 -98 -89 32 -6 214 101 202 119 -10 17
-39 8 -104 -30z"/>
<path d="M531 33 c-29 -21 -1 -28 109 -28 107 0 133 6 113 26 -14 14 -202 17
-222 2z"/>
</g>
</svg>
