<?xml version="1.0" encoding="UTF-8"?>
<svg id="_Слой_2" data-name="Слой 2" xmlns="http://www.w3.org/2000/svg" viewBox="0 0 1080 1080">
  <defs>
    <style>
      .cls-1 {
        fill: #809786;
      }

      .cls-2 {
        fill: none;
        stroke: #809786;
        stroke-linecap: round;
        stroke-linejoin: round;
        stroke-width: 50px;
      }
    </style>
  </defs>
  <path class="cls-1" d="M674.31,653.29v220.38h-264.56v-220.38h264.56M696.09,631.51h-308.12v263.93h308.12v-263.93h0Z"/>
  <path class="cls-1" d="M366.19,633.74v239.92h-150.58v-239.92h150.58M387.97,611.97h-194.13v283.48h194.13v-283.48h0Z"/>
  <g>
    <rect class="cls-1" x="217.57" y="561.25" width="145.7" height="43.45"/>
    <path class="cls-1" d="M356.01,568.51v28.94h-131.18v-28.94h131.18M370.53,553.99h-160.22v57.97h160.22v-57.97h0Z"/>
  </g>
  <path class="cls-1" d="M868.45,633.74v239.92h-150.58v-239.92h150.58M890.23,611.97h-194.13v283.48h194.13v-283.48h0Z"/>
  <g>
    <rect class="cls-1" x="719.82" y="561.25" width="145.7" height="43.45"/>
    <path class="cls-1" d="M858.26,568.51v28.94h-131.18v-28.94h131.18M872.78,553.99h-160.22v57.97h160.22v-57.97h0Z"/>
  </g>
  <path class="cls-1" d="M674.31,557.52v52.21h-265.29v-52.21h265.29M696.09,535.74h-308.84v95.77h308.84v-95.77h0Z"/>
  <g>
    <path class="cls-1" d="M217.99,546.72c1.76-15.06,9-29.07,20.84-40.08,13.85-12.88,32.18-19.97,51.59-19.97s37.74,7.09,51.59,19.97c11.82,10.99,19.06,24.98,20.83,39.98h-72.42l-72.43.1Z"/>
    <path class="cls-1" d="M290.42,493.93c17.57,0,34.14,6.4,46.65,18.03,8.36,7.77,14.15,17.2,16.97,27.4h-63.64l-63.62.09c2.81-10.24,8.61-19.7,16.99-27.49,12.51-11.63,29.07-18.03,46.65-18.03M290.42,479.41c-43.95,0-80.11,33.62-80.11,74.47,0,.04,0,.07,0,.11l80.11-.11h80.11c0-40.85-36.16-74.47-80.11-74.47h0Z"/>
  </g>
  <g>
    <path class="cls-1" d="M720.24,546.72c1.75-15.04,9-29.07,20.84-40.08,13.85-12.88,32.18-19.97,51.59-19.97s37.74,7.09,51.59,19.97c11.82,10.99,19.06,24.98,20.83,39.98h-72.42l-72.43.1Z"/>
    <path class="cls-1" d="M792.67,493.93c17.57,0,34.14,6.4,46.65,18.03,8.36,7.77,14.15,17.2,16.97,27.4h-63.64l-63.62.09c2.81-10.24,8.61-19.7,16.99-27.49,12.51-11.63,29.07-18.03,46.65-18.03M792.67,479.41c-43.95,0-80.11,33.62-80.11,74.47,0,.04,0,.07,0,.11l80.11-.11h80.11c0-40.85-36.16-74.47-80.11-74.47h0Z"/>
  </g>
  <g>
    <path class="cls-1" d="M793.16,490.75c-6.25,0-11.33-5.08-11.33-11.33s5.08-11.33,11.33-11.33,11.33,5.08,11.33,11.33-5.08,11.33-11.33,11.33Z"/>
    <path class="cls-1" d="M793.16,478.97c.25,0,.44.2.44.44s-.2.44-.44.44-.44-.2-.44-.44.2-.44.44-.44M793.16,457.19c-12.27,0-22.22,9.95-22.22,22.22s9.95,22.22,22.22,22.22,22.22-9.95,22.22-22.22-9.95-22.22-22.22-22.22h0Z"/>
  </g>
  <g>
    <path class="cls-1" d="M290.42,494.38c-8.25,0-14.96-6.71-14.96-14.96s6.71-14.96,14.96-14.96,14.96,6.71,14.96,14.96-6.71,14.96-14.96,14.96Z"/>
    <path class="cls-1" d="M290.42,471.71c4.25,0,7.7,3.46,7.7,7.7s-3.46,7.7-7.7,7.7-7.7-3.46-7.7-7.7,3.46-7.7,7.7-7.7M290.42,457.19c-12.27,0-22.22,9.95-22.22,22.22s9.95,22.22,22.22,22.22,22.22-9.95,22.22-22.22-9.95-22.22-22.22-22.22h0Z"/>
  </g>
  <g>
    <g>
      <path class="cls-1" d="M259.66,752.25c-9.92,0-18-8.07-18-18v-35.19c0-9.92,8.07-18,18-18s18,8.07,18,18v35.19c0,9.92-8.07,18-18,18Z"/>
      <path class="cls-1" d="M259.66,688.33c5.92,0,10.74,4.82,10.74,10.74v35.19c0,5.92-4.82,10.74-10.74,10.74s-10.74-4.82-10.74-10.74v-35.19c0-5.92,4.82-10.74,10.74-10.74M259.66,673.81h0c-13.95,0-25.26,11.31-25.26,25.26v35.19c0,13.95,11.31,25.26,25.26,25.26h0c13.95,0,25.26-11.31,25.26-25.26v-35.19c0-13.95-11.31-25.26-25.26-25.26h0Z"/>
    </g>
    <g>
      <path class="cls-1" d="M322.15,752.25c-9.92,0-18-8.07-18-18v-35.19c0-9.92,8.07-18,18-18s18,8.07,18,18v35.19c0,9.92-8.07,18-18,18Z"/>
      <path class="cls-1" d="M322.15,688.33c5.92,0,10.74,4.82,10.74,10.74v35.19c0,5.92-4.82,10.74-10.74,10.74s-10.74-4.82-10.74-10.74v-35.19c0-5.92,4.82-10.74,10.74-10.74M322.15,673.81c-13.95,0-25.26,11.31-25.26,25.26v35.19c0,13.95,11.31,25.26,25.26,25.26s25.26-11.31,25.26-25.26v-35.19c0-13.95-11.31-25.26-25.26-25.26h0Z"/>
    </g>
    <g>
      <path class="cls-1" d="M322.15,849.96c-9.92,0-18-8.07-18-18v-35.19c0-9.92,8.07-18,18-18s18,8.07,18,18v35.19c0,9.92-8.07,18-18,18Z"/>
      <path class="cls-1" d="M322.15,786.03c5.92,0,10.74,4.82,10.74,10.74v35.19c0,5.92-4.82,10.74-10.74,10.74s-10.74-4.82-10.74-10.74v-35.19c0-5.92,4.82-10.74,10.74-10.74M322.15,771.51c-13.95,0-25.26,11.31-25.26,25.26v35.19c0,13.95,11.31,25.26,25.26,25.26s25.26-11.31,25.26-25.26v-35.19c0-13.95-11.31-25.26-25.26-25.26h0Z"/>
    </g>
    <g>
      <path class="cls-1" d="M259.66,849.96c-9.92,0-18-8.07-18-18v-35.19c0-9.92,8.07-18,18-18s18,8.07,18,18v35.19c0,9.92-8.07,18-18,18Z"/>
      <path class="cls-1" d="M259.66,786.03c5.92,0,10.74,4.82,10.74,10.74v35.19c0,5.92-4.82,10.74-10.74,10.74s-10.74-4.82-10.74-10.74v-35.19c0-5.92,4.82-10.74,10.74-10.74M259.66,771.51h0c-13.95,0-25.26,11.31-25.26,25.26v35.19c0,13.95,11.31,25.26,25.26,25.26h0c13.95,0,25.26-11.31,25.26-25.26v-35.19c0-13.95-11.31-25.26-25.26-25.26h0Z"/>
    </g>
  </g>
  <g>
    <g>
      <path class="cls-1" d="M761.91,752.25c-9.92,0-18-8.07-18-18v-35.19c0-9.92,8.07-18,18-18s18,8.07,18,18v35.19c0,9.92-8.07,18-18,18Z"/>
      <path class="cls-1" d="M761.91,688.33c5.92,0,10.74,4.82,10.74,10.74v35.19c0,5.92-4.82,10.74-10.74,10.74s-10.74-4.82-10.74-10.74v-35.19c0-5.92,4.82-10.74,10.74-10.74M761.91,673.81h0c-13.95,0-25.26,11.31-25.26,25.26v35.19c0,13.95,11.31,25.26,25.26,25.26h0c13.95,0,25.26-11.31,25.26-25.26v-35.19c0-13.95-11.31-25.26-25.26-25.26h0Z"/>
    </g>
    <g>
      <path class="cls-1" d="M824.41,752.25c-9.92,0-18-8.07-18-18v-35.19c0-9.92,8.07-18,18-18s18,8.07,18,18v35.19c0,9.92-8.07,18-18,18Z"/>
      <path class="cls-1" d="M824.41,688.33c5.92,0,10.74,4.82,10.74,10.74v35.19c0,5.92-4.82,10.74-10.74,10.74s-10.74-4.82-10.74-10.74v-35.19c0-5.92,4.82-10.74,10.74-10.74M824.41,673.81h0c-13.95,0-25.26,11.31-25.26,25.26v35.19c0,13.95,11.31,25.26,25.26,25.26h0c13.95,0,25.26-11.31,25.26-25.26v-35.19c0-13.95-11.31-25.26-25.26-25.26h0Z"/>
    </g>
    <g>
      <path class="cls-1" d="M824.41,849.96c-9.92,0-18-8.07-18-18v-35.19c0-9.92,8.07-18,18-18s18,8.07,18,18v35.19c0,9.92-8.07,18-18,18Z"/>
      <path class="cls-1" d="M824.41,786.03c5.92,0,10.74,4.82,10.74,10.74v35.19c0,5.92-4.82,10.74-10.74,10.74s-10.74-4.82-10.74-10.74v-35.19c0-5.92,4.82-10.74,10.74-10.74M824.41,771.51h0c-13.95,0-25.26,11.31-25.26,25.26v35.19c0,13.95,11.31,25.26,25.26,25.26h0c13.95,0,25.26-11.31,25.26-25.26v-35.19c0-13.95-11.31-25.26-25.26-25.26h0Z"/>
    </g>
    <g>
      <path class="cls-1" d="M761.91,849.96c-9.92,0-18-8.07-18-18v-35.19c0-9.92,8.07-18,18-18s18,8.07,18,18v35.19c0,9.92-8.07,18-18,18Z"/>
      <path class="cls-1" d="M761.91,786.03c5.92,0,10.74,4.82,10.74,10.74v35.19c0,5.92-4.82,10.74-10.74,10.74s-10.74-4.82-10.74-10.74v-35.19c0-5.92,4.82-10.74,10.74-10.74M761.91,771.51h0c-13.95,0-25.26,11.31-25.26,25.26v35.19c0,13.95,11.31,25.26,25.26,25.26h0c13.95,0,25.26-11.31,25.26-25.26v-35.19c0-13.95-11.31-25.26-25.26-25.26h0Z"/>
    </g>
  </g>
  <path class="cls-1" d="M548.41,686.42c30.85,0,55.95,25.1,55.95,55.95v130.1h-124.66v-130.1c0-30.85,25.1-55.95,55.95-55.95h12.75M548.41,664.64h-12.75c-42.93,0-77.73,34.8-77.73,77.73v151.88h168.21v-151.88c0-42.93-34.8-77.73-77.73-77.73h0Z"/>
  <path class="cls-1" d="M558.8,276.96h0,0M542.59,288.22c12.17,10.26,29.93,25.57,51.17,44.36,35.81,31.68,63.94,57.77,71.65,66.47,1.24,1.4,11.99,15.19,6.65,67.1-1.24,12.09-3.12,23.63-4.97,33.29h-251.12c-1.75-8.27-3.45-18.07-4.52-28.54-3.35-32.83.95-58.79,12.12-73.08,15.32-19.61,42.17-46.14,75.6-74.69,17.52-14.97,32.65-26.88,43.42-34.92M544.76,243.75c-7.55,0-107.79,77.99-149.78,131.74-42.6,54.52-7,160.26-7,160.26h308.12s33.11-119.46-3.52-160.77c-21.4-24.14-141.58-128.98-147.55-131.18-.07-.03-.16-.05-.27-.05h0Z"/>
  <line class="cls-2" x1="542.67" y1="184.56" x2="542.67" y2="253.2"/>
  <line class="cls-2" x1="157.71" y1="894.25" x2="922.29" y2="894.25"/>
</svg>