<svg width="225.00000000000003" height="225.00000000000003" xmlns="http://www.w3.org/2000/svg" version="1.1">
 <g>
  <title>Layer 1</title>
  <rect transform="rotate(135 169.523 60.6687)" stroke="null" id="svg_9" height="154.9685" width="12" y="-16.81559" x="163.52322" fill="#000000"/>
  <rect transform="rotate(45 62.1397 59.4509)" stroke="null" id="svg_10" height="162.27469" width="12" y="-21.68647" x="56.13972" fill="#000000"/>
  <rect stroke="null" id="svg_11" height="133.79764" width="12" y="90.98392" x="23.0398" fill="#000000"/>
  <rect id="svg_12" height="134" width="12" y="90.98392" x="193.94538" stroke="null" fill="#000000"/>
  <rect id="svg_13" height="12" width="178.22264" y="213.09539" x="23.38823" stroke="null" fill="#000000"/>
  <rect id="svg_14" height="95.29598" width="12" y="121.58432" x="47.67534" fill="#000000"/>
  <rect stroke="null" id="svg_15" height="12" width="53.48195" y="121.78866" x="49.52235" fill="#000000"/>
  <rect stroke="null" id="svg_17" height="56.98814" width="14.99915" y="3.67401" x="163.3073" fill="#000000"/>
  <rect transform="rotate(135 173.161 48.9787)" id="svg_18" height="35.8423" width="9" y="31.05753" x="168.66093" stroke="null" fill="none"/>
  <rect id="svg_19" height="50" width="12" y="111.50541" x="131.87666" stroke="null" fill="#000000"/>
  <rect id="svg_29" height="50" width="12" y="111.01097" x="170.18025" stroke="null" fill="#000000"/>
  <rect id="svg_30" height="12" width="50" y="110.69749" x="131.93574" stroke="null" fill="#000000"/>
  <rect stroke="null" id="svg_31" height="12" width="50" y="149.56916" x="131.93574" fill="#000000"/>
  <rect id="svg_32" height="94.98433" width="12" y="121.66928" x="91.18339" stroke="null" fill="#000000"/>
 </g>

</svg>